HIERARCHY
ROOT SimulationBone
{
	OFFSET 0.000000 0.000000 0.000000
	CHANNELS 6 Xposition Yposition Zposition Zrotation Yrotation Xrotation 
	JOINT Hips
	{
		OFFSET 0.000000 0.000000 0.000000
		CHANNELS 6 Xposition Yposition Zposition Zrotation Yrotation Xrotation 
		JOINT LeftUpLeg
		{
			OFFSET 0.103458 1.857831 10.548505
			CHANNELS 3 Zrotation Yrotation Xrotation
			JOINT LeftLeg
			{
				OFFSET 43.500000 -0.000031 0.000002
				CHANNELS 3 Zrotation Yrotation Xrotation
				JOINT LeftFoot
				{
					OFFSET 42.372200 0.000023 0.000003
					CHANNELS 3 Zrotation Yrotation Xrotation
					JOINT LeftToe
					{
						OFFSET 17.299997 -0.000001 -0.000010
						CHANNELS 3 Zrotation Yrotation Xrotation
						End Site
						{
							OFFSET 0.000000 0.000000 0.000000
						}
					}
				}
			}
		}
		JOINT RightUpLeg
		{
			OFFSET 0.103457 1.857828 -10.548510
			CHANNELS 3 Zrotation Yrotation Xrotation
			JOINT RightLeg
			{
				OFFSET 43.500046 -0.000015 0.000002
				CHANNELS 3 Zrotation Yrotation Xrotation
				JOINT RightFoot
				{
					OFFSET 42.372261 -0.000008 0.000023
					CHANNELS 3 Zrotation Yrotation Xrotation
					JOINT RightToe
					{
						OFFSET 17.299990 -0.000007 -0.000002
						CHANNELS 3 Zrotation Yrotation Xrotation
						End Site
						{
							OFFSET 0.000000 0.000000 0.000000
						}
					}
				}
			}
		}
		JOINT Spine
		{
			OFFSET 6.901967 -2.603726 -0.000001
			CHANNELS 3 Zrotation Yrotation Xrotation
			JOINT Spine1
			{
				OFFSET 12.588100 -0.000009 -0.000003
				CHANNELS 3 Zrotation Yrotation Xrotation
				JOINT Spine2
				{
					OFFSET 12.343202 0.000008 0.000008
					CHANNELS 3 Zrotation Yrotation Xrotation
					JOINT Neck
					{
						OFFSET 25.832897 -0.000015 -0.000004
						CHANNELS 3 Zrotation Yrotation Xrotation
						JOINT Head
						{
							OFFSET 11.766609 0.000013 -0.000006
							CHANNELS 3 Zrotation Yrotation Xrotation
							End Site
							{
								OFFSET 0.000000 0.000000 0.000000
							}
						}
					}
					JOINT LeftShoulder
					{
						OFFSET 19.745911 -1.480373 6.000098
						CHANNELS 3 Zrotation Yrotation Xrotation
						JOINT LeftArm
						{
							OFFSET 11.284123 -0.000007 -0.000032
							CHANNELS 3 Zrotation Yrotation Xrotation
							JOINT LeftForeArm
							{
								OFFSET 33.000050 0.000005 0.000031
								CHANNELS 3 Zrotation Yrotation Xrotation
								JOINT LeftHand
								{
									OFFSET 25.200008 0.000017 0.000013
									CHANNELS 3 Zrotation Yrotation Xrotation
									End Site
									{
										OFFSET 0.000000 0.000000 0.000000
									}
								}
							}
						}
					}
					JOINT RightShoulder
					{
						OFFSET 19.746092 -1.480379 -6.000077
						CHANNELS 3 Zrotation Yrotation Xrotation
						JOINT RightArm
						{
							OFFSET 11.284136 -0.000017 -0.000017
							CHANNELS 3 Zrotation Yrotation Xrotation
							JOINT RightForeArm
							{
								OFFSET 33.000099 0.000019 0.000015
								CHANNELS 3 Zrotation Yrotation Xrotation
								JOINT RightHand
								{
									OFFSET 25.199780 0.000140 0.000408
									CHANNELS 3 Zrotation Yrotation Xrotation
									End Site
									{
										OFFSET 0.000000 0.000000 0.000000
									}
								}
							}
						}
					}
				}
			}
		}
	}
}
MOTION
Frames: 14
Frame Time: 0.033333
79.572769 0.000000 262.722923 0.000000 123.463111 0.000000 -4.927921 92.006363 1.080866 86.079809 3.585372 -176.705081 167.113241 -4.502104 -173.614543 -23.267292 -4.033724 -1.670138 82.533889 1.522225 1.060372 21.454560 0.003110 0.000018 163.783415 0.067094 168.978416 -22.301145 3.906375 -1.702557 74.875976 3.071201 6.640464 21.454551 -0.003091 0.000000 8.937111 -0.369649 0.931394 7.855160 -0.801499 1.835616 7.537190 -0.790541 1.840417 14.887355 -6.264730 -11.638270 -14.888045 13.432172 -17.106871 -160.012932 -77.638644 -21.843939 22.249258 31.792137 45.921981 -75.339288 -14.919729 2.747474 17.333524 5.919568 52.375964 166.826701 78.269897 -11.871777 -34.891946 -49.289329 -14.484157 -80.876174 9.452233 -2.565471 -5.910038 -0.614588 -42.131113 
78.699023 0.000000 262.598906 0.000000 120.032003 0.000000 -3.906392 91.705833 2.194198 87.213962 3.798792 -177.233522 169.318245 -6.690201 -179.817666 -24.524081 -5.069716 0.001369 84.302587 0.442940 1.459074 21.454557 0.003104 0.000017 164.859333 0.340808 171.740626 -23.696949 4.394563 -2.443094 78.872245 4.276076 10.245746 21.454550 -0.003104 0.000001 8.675926 -0.616642 0.571912 7.333332 -1.268130 1.103756 7.015205 -1.261579 1.111379 11.050849 -5.964020 -11.330486 -15.061406 13.820314 -17.057872 -164.433307 -77.005861 -17.348472 20.896009 32.461447 44.800881 -73.770804 -14.964581 2.683365 17.571165 9.715714 50.725452 169.432241 76.596289 -9.278009 -33.111152 -51.458304 -16.929956 -78.099327 10.585461 -2.524835 -3.674744 -1.746696 -46.511727 
78.016955 0.000000 262.195105 0.000000 116.645757 0.000000 -3.107902 91.208633 2.892995 88.275160 3.456259 -177.718956 171.308699 -7.094195 178.119463 -25.889904 -5.717465 -0.895448 86.227211 0.923553 0.795703 21.454555 0.003097 0.000017 164.151357 1.209894 175.755534 -29.026996 3.614913 -1.812899 81.936568 3.455761 9.872078 21.454553 -0.003087 -0.000002 8.523204 -0.880802 0.283013 7.030433 -1.777055 0.512188 6.712171 -1.774065 0.522904 7.111914 -6.585686 -10.837429 -14.338095 15.598042 -17.243125 -169.785607 -75.810387 -11.889210 15.992352 33.316539 44.092208 -68.388007 -16.147527 2.540395 15.679060 11.001311 44.105028 175.403069 75.575128 -3.212999 -31.011822 -54.468908 -18.225414 -73.317429 12.315418 -2.442649 -3.883888 0.267087 -45.411841 
77.517562 0.000000 261.522866 0.000000 113.333305 0.000000 -2.446423 90.613403 3.337965 89.434502 2.956184 -178.202557 173.312048 -6.515503 177.180407 -27.243164 -5.399936 -2.607300 88.208464 1.831932 -0.626476 21.454555 0.003108 0.000018 162.888182 2.395997 178.945301 -35.366716 1.898679 1.524845 83.104749 0.973981 9.681778 21.454551 -0.003091 0.000001 8.429763 -1.048938 -0.038656 6.849089 -2.093693 -0.139174 6.530763 -2.094626 -0.126522 5.181550 -7.242989 -10.203638 -14.893579 15.880523 -16.946724 -172.452004 -74.669882 -9.159014 7.816813 35.438484 44.855498 -57.329801 -18.391451 2.262629 11.040093 9.571599 32.998867 178.040328 74.626695 -0.537084 -27.988227 -57.590939 -18.480902 -67.354865 14.318487 -2.336786 -4.635353 4.395902 -41.146863 
77.191842 0.000000 260.593536 0.000000 110.120619 0.000000 -1.904491 90.142593 3.475630 90.761409 2.743198 -178.942835 175.873737 -6.039000 176.185071 -27.846422 -5.093996 -4.410336 89.820334 2.837472 -2.049796 21.454558 0.003103 0.000017 161.440810 3.518603 -179.680434 -41.026334 0.396973 5.520336 81.284927 -1.810915 9.120228 21.454548 -0.003093 0.000002 8.389944 -1.101460 -0.314896 6.774889 -2.182586 -0.693650 6.456567 -2.186865 -0.680464 4.361819 -7.026145 -8.912907 -15.294445 15.063798 -15.415469 -173.178599 -73.953142 -8.411456 -2.958174 38.661961 44.299186 -42.021270 -18.013801 1.737501 7.335183 4.358093 20.540809 179.439069 73.772914 0.879110 -24.440978 -59.940845 -18.059128 -60.769621 16.220050 -2.210526 -3.437500 8.910411 -32.386134 
77.030791 0.000000 259.418460 0.000000 107.029781 0.000000 -1.504789 89.745613 3.384380 91.878813 2.407160 -179.831710 178.723825 -5.453794 174.565879 -27.516361 -4.959493 -5.835554 90.898896 3.650519 -3.177624 21.454558 0.003108 0.000017 159.680151 5.070692 -179.883919 -45.452426 -0.112744 8.064247 79.584954 -3.842877 7.642990 21.454550 -0.003082 -0.000001 8.323738 -1.142439 -0.591400 6.648132 -2.249050 -1.247472 6.329864 -2.256679 -1.233875 4.097290 -6.345653 -7.446576 -15.226962 13.830027 -13.385961 -176.124897 -73.170451 -5.382137 -10.889628 42.158619 34.954456 -30.729182 -14.842742 1.260198 7.830728 -3.272888 18.672976 -178.347618 73.286236 3.141010 -22.080776 -61.610485 -16.191645 -53.675462 17.425394 -2.035368 -0.554778 12.460140 -23.665376 
77.025406 0.000000 258.008985 0.000000 104.078451 0.000000 -1.181576 89.475487 3.099975 92.578196 2.187349 179.285436 -178.367221 -4.826900 172.929694 -26.241160 -4.901864 -7.145574 91.430251 4.407142 -4.159641 21.454560 0.003109 0.000018 157.580018 6.982406 -179.530935 -47.575860 -0.194313 7.680082 78.958052 -3.650969 7.165333 21.454551 -0.003093 -0.000001 8.199193 -1.101495 -0.970196 6.405413 -2.147732 -1.999979 6.087287 -2.159902 -1.986988 4.150278 -5.000586 -5.836827 -15.400502 11.563012 -10.769906 -177.559906 -72.786348 -3.903601 -16.764245 45.436232 22.773201 -25.699324 -14.096466 1.121275 9.209997 -6.517095 24.674637 -176.239371 73.015979 5.301304 -21.553675 -61.841632 -13.457679 -46.010828 17.935590 -1.820365 4.237420 14.977386 -11.547356 
77.166683 0.000000 256.376458 0.000000 101.279723 0.000000 -0.990289 89.270813 2.648891 92.832785 2.119502 178.575798 -175.688844 -4.246402 170.757174 -24.511141 -4.661764 -7.928703 91.553713 4.821239 -4.981637 21.454557 0.003109 0.000019 155.825780 8.943297 -178.770844 -46.028071 0.683712 5.709775 77.572009 -2.276774 6.899445 21.454555 -0.003092 -0.000002 8.083008 -0.929727 -1.359457 6.175496 -1.785816 -2.766718 5.857635 -1.802627 -2.755895 3.106761 -3.735035 -4.205529 -14.696704 8.939883 -7.953269 -176.723700 -72.500211 -4.758565 -21.884182 47.181854 15.676459 -25.689641 -14.708438 1.160158 11.111317 -7.993073 25.821107 -174.450640 73.259325 7.139881 -21.155918 -61.224532 -10.435616 -39.431809 18.238012 -1.653941 9.446263 15.630925 -1.247408 
77.445619 0.000000 254.532225 0.000000 98.642315 0.000000 -0.828638 89.150208 2.136612 92.790063 2.344697 177.826898 -172.902428 -3.796415 169.062700 -22.080077 -4.600862 -8.877449 91.164761 5.344870 -5.791824 21.454560 0.003112 0.000018 154.627737 10.201396 -177.296288 -41.726947 1.591380 3.360459 74.740124 -0.411345 7.076837 21.454550 -0.003078 0.000000 7.938793 -0.656407 -1.549845 5.881966 -1.233532 -3.131066 5.564309 -1.252542 -3.123579 2.416341 -2.408662 -2.966830 -14.395162 6.417658 -5.606186 -177.687508 -72.766499 -3.771842 -25.088957 47.933687 13.437407 -28.927268 -15.292430 1.254126 9.400177 -8.150813 20.958704 -172.663221 73.263307 8.974504 -18.613338 -59.657085 -8.120620 -34.999255 17.843135 -1.518772 13.628135 16.285794 5.410666 
77.853212 0.000000 252.487633 0.000000 96.170993 0.000000 -0.829066 89.040123 1.598101 92.526663 2.693224 177.010912 -170.215909 -3.354600 167.951264 -19.373330 -4.686659 -9.960097 90.400122 5.945631 -6.600084 21.454557 0.003104 0.000017 153.731453 10.372409 -176.740475 -35.360279 2.492168 2.569179 70.371917 0.565738 7.550030 21.454551 -0.003091 0.000000 7.832129 -0.355101 -1.644373 5.660632 -0.629725 -3.304084 5.343085 -0.649793 -3.300232 1.839661 -1.256460 -1.779182 -14.448376 4.869610 -3.686856 -178.632888 -72.718005 -2.800217 -27.204630 47.406540 14.294532 -33.770624 -16.640246 1.440062 7.867904 -7.870967 12.023808 -170.915990 73.437402 10.768477 -15.120980 -57.252285 -8.052029 -32.198140 17.218871 -1.416499 17.607048 15.670727 11.284935 
78.380457 0.000000 250.254029 0.000000 93.867146 0.000000 -0.999869 88.832176 1.079713 92.017053 2.926103 176.364080 -168.018624 -2.806797 167.069378 -17.075791 -4.665961 -10.881550 89.650543 6.408219 -7.555457 21.454558 0.003101 0.000018 153.100452 9.868504 -176.306594 -27.907202 2.772661 3.223308 66.920213 0.813980 8.923954 21.454553 -0.003098 -0.000003 7.782066 -0.085049 -1.728844 5.552629 -0.087475 -3.459724 5.235167 -0.108481 -3.459143 0.497603 0.347867 -0.600944 -13.834885 3.223657 -1.632818 -177.903082 -72.970982 -3.553096 -29.307700 46.760025 14.663067 -39.635817 -18.447839 1.700623 6.735620 -8.187709 5.899545 -169.438852 74.019812 12.284580 -11.391645 -54.770823 -9.378530 -30.224885 16.204255 -1.311262 19.108108 14.942811 14.737849 
79.018352 0.000000 247.842757 0.000000 91.729428 0.000000 -1.297293 88.489502 0.644954 91.320385 2.990222 175.847223 -166.265068 -2.196707 165.820300 -15.370477 -4.455663 -11.339471 89.099517 6.530698 -8.667155 21.454557 0.003104 0.000017 151.946028 8.989386 -176.242964 -21.798002 2.640644 4.753029 66.195871 -0.059618 9.483560 21.454553 -0.003093 0.000000 7.728420 0.089899 -1.756923 5.440019 0.261851 -3.507702 5.122578 0.240552 -3.509222 -0.463302 2.610871 0.183892 -13.115767 1.586288 0.140885 -178.003500 -73.562824 -3.458344 -30.793317 46.339671 12.345035 -46.204058 -19.682466 1.970976 5.061896 -9.402183 5.103848 -166.871043 74.186509 14.916617 -7.606379 -52.355896 -12.578141 -28.694656 15.945920 -1.265579 18.697069 12.509887 15.237027 
79.757894 0.000000 245.265167 0.000000 89.754126 0.000000 -1.692140 88.020264 0.281126 90.785315 2.899215 175.640067 -164.541238 -1.604006 164.514805 -14.100324 -4.268195 -11.449705 88.664666 6.413189 -9.787471 21.454557 0.003106 0.000016 150.483848 7.621203 -174.990895 -17.736268 1.067984 6.747797 65.859997 -1.420603 9.655717 21.454551 -0.003090 0.000001 7.766919 0.230519 -1.821687 5.512416 0.547109 -3.630412 5.194987 0.525032 -3.633636 -1.251475 4.791515 0.897815 -12.535544 0.148892 1.766328 -178.717514 -73.929838 -2.731676 -31.432951 45.834883 8.375839 -53.534107 -20.112211 2.242806 3.554718 -9.476064 9.047460 -164.294627 74.636400 17.553709 -3.537069 -50.448211 -16.946191 -28.004013 15.727673 -1.239062 17.008616 11.177863 12.660171 
80.590078 0.000000 242.532602 0.000000 87.936832 0.000000 -2.169802 87.474899 -0.058319 90.343434 2.748192 175.709730 -162.811711 -1.036902 163.651934 -12.991201 -4.158119 -11.583452 88.172592 6.317650 -10.816177 21.454562 0.003114 0.000019 148.449367 6.302096 -175.114753 -16.956732 0.495376 10.100349 65.445322 -4.123365 8.940304 21.454551 -0.003097 -0.000002 7.869397 0.348808 -1.947973 5.712696 0.792883 -3.876477 5.395373 0.769366 -3.881208 -2.066968 6.947699 1.653316 -11.567228 -1.694749 3.561352 -178.348793 -74.358849 -3.115920 -31.942985 45.388359 3.725686 -60.237733 -19.219370 2.428811 1.796419 -8.811954 14.845590 -162.009751 75.089413 19.888502 0.484763 -48.816202 -21.596872 -28.210285 15.299147 -1.215387 14.605436 10.497270 10.209253 
